# xmcd
#
# Track frame offsets: 
#        150
#        11132
#        26092
#        41587
#        52105
#        73265
#        86077
#        101207
#        116265
#        129750
#
# Disc length: 1918 seconds
#
# Revision: 2
# Processed by: cddbd v1.4PL0 Copyright (c) Steve Scherf et al.
# Submitted via: ExactAudioCopy v0.90b4
#
DISCID=88077c0a
DTITLE=Dwight Yoakam - Population Me
DYEAR=2003
DGENRE=Country
TTITLE0=The Late Great Golden State
TTITLE1=No Such Thing
TTITLE2=Fair To Midland
TTITLE3=An Exception To The Rule
TTITLE4=Population Me
TTITLE5=Stayin' Up Late (Thinkin' About It)
TTITLE6=Trains And Boats And Planes
TTITLE7=If Teardrops Were Diamonds
TTITLE8=I'd Avoid Me Too
TTITLE9=The Back Of Your Hand
EXTD=
EXTT0=
EXTT1=
EXTT2=
EXTT3=
EXTT4=
EXTT5=
EXTT6=
EXTT7=
EXTT8=
EXTT9=
PLAYORDER=
